/* XPM */
static char *bitcoin__[] = {
/* columns rows colors chars-per-pixel */
"48 48 209 2 ",
"   c black",
".  c #000001",
"X  c #000101",
"o  c #010101",
"O  c #010102",
"+  c #000202",
"@  c #010203",
"#  c #000303",
"$  c #020203",
"%  c #020304",
"&  c #020305",
"*  c #030305",
"=  c #000505",
"-  c #030406",
";  c #030407",
":  c #040508",
">  c #050509",
",  c #05060A",
"<  c #06070B",
"1  c #06070C",
"2  c #000A0B",
"3  c #000B0B",
"4  c #07080D",
"5  c #07090E",
"6  c #08090E",
"7  c #08090F",
"8  c #080A10",
"9  c #090A11",
"0  c #090B11",
"q  c #0A0C14",
"w  c #0B0D14",
"e  c #090E14",
"r  c #0C0E16",
"t  c #0C0E17",
"y  c #0D0F19",
"u  c #031315",
"i  c #001414",
"p  c #0E101A",
"a  c #0E111B",
"s  c #0E111C",
"d  c #0F121D",
"f  c #001F1F",
"g  c #111420",
"h  c #121623",
"j  c #131725",
"k  c #141826",
"l  c #161A29",
"z  c #171C2C",
"x  c #171C2D",
"c  c #181C2E",
"v  c #191E30",
"b  c #1A1F31",
"n  c #1A1F32",
"m  c #002323",
"M  c #002727",
"N  c #002D2D",
"B  c #002E2E",
"V  c #1B2033",
"C  c #1C2135",
"Z  c #1E2339",
"A  c #003434",
"S  c #003B3B",
"D  c #08393F",
"F  c #20263C",
"G  c #20263D",
"H  c #20273E",
"J  c #21273F",
"K  c #212840",
"L  c #222942",
"P  c #232A43",
"I  c #252C46",
"U  c #252C47",
"Y  c #252D47",
"T  c #252D48",
"R  c #262D48",
"E  c #272E4A",
"W  c #272F4B",
"Q  c #29324F",
"!  c #2A3250",
"~  c #2C3554",
"^  c #2C3555",
"/  c #2D3555",
"(  c #2D3656",
")  c #2E3758",
"_  c #2E3E5F",
"`  c #30395C",
"'  c #313B5E",
"]  c #323C60",
"[  c #333D62",
"{  c #343E64",
"}  c #353F64",
"|  c #353F65",
" . c #004040",
".. c #004242",
"X. c #004949",
"o. c #005151",
"O. c #005454",
"+. c #005959",
"@. c #244660",
"#. c #364066",
"$. c #364167",
"%. c #374169",
"&. c #37426A",
"*. c #3A416A",
"=. c #3A416B",
"-. c #38436B",
";. c #3A426B",
":. c #39426C",
">. c #38436C",
",. c #39436C",
"<. c #3A426C",
"1. c #3A436D",
"2. c #39446C",
"3. c #39446D",
"4. c #39446E",
"5. c #39456E",
"6. c #3A456E",
"7. c #3A456F",
"8. c #374E75",
"9. c #345378",
"0. c #325A7E",
"q. c #006161",
"w. c #006A6A",
"e. c #006D6C",
"r. c #404D7B",
"t. c #404E7B",
"y. c #414E7C",
"u. c #2F6486",
"i. c #2E6788",
"p. c #2E698A",
"a. c #2D6B8C",
"s. c #2D6D8D",
"d. c #306284",
"f. c #306386",
"g. c #2C708F",
"h. c #2B7291",
"j. c #2A7594",
"k. c #2A7694",
"l. c #297996",
"z. c #287A98",
"x. c #287C99",
"c. c #445283",
"v. c #4D5C93",
"b. c #51629C",
"n. c #5869A8",
"m. c #586AA8",
"M. c #596BAB",
"N. c #5B6EAF",
"B. c #6276BD",
"V. c #6377BD",
"C. c #6479C0",
"Z. c #697FCA",
"A. c #008181",
"S. c #009898",
"D. c #27809C",
"F. c #26819C",
"G. c #26839E",
"H. c #1F9AB0",
"J. c #238CA6",
"K. c #00ADAD",
"L. c #00BFBF",
"P. c #0EB7C1",
"I. c #10BFCA",
"U. c #6A80CB",
"Y. c #6B81CD",
"T. c #6C82CF",
"R. c #6C82D0",
"E. c #6D83D0",
"W. c #6D83D1",
"Q. c #6D84D1",
"!. c #6D84D2",
"~. c #6E84D2",
"^. c #6E84D3",
"/. c #00C2C2",
"(. c #00C6C6",
"). c #00CDCD",
"_. c #00D3D3",
"`. c #00D5D5",
"'. c #00D9D9",
"]. c #00DEDE",
"[. c #0DD7E0",
"{. c #0BDBE3",
"}. c #0CD8E0",
"|. c #0CD8E1",
" X c #0ADEE5",
".X c #0ADFE6",
"XX c #00E1E1",
"oX c #00E3E3",
"OX c #0AE0E7",
"+X c #07E7EC",
"@X c #07E7ED",
"#X c #08E3E9",
"$X c #08E5EB",
"%X c #00E8E8",
"&X c #00EBEB",
"*X c #06EAEF",
"=X c #06EBEF",
"-X c #00ECEC",
";X c #05EEF1",
":X c #05EFF2",
">X c #00F0F0",
",X c #05F0F3",
"<X c #03F5F7",
"1X c #00F6F6",
"2X c #02F9FB",
"3X c #00FCFC",
"4X c #01FDFD",
"5X c cyan",
"6X c None",
/* pixels */
"6X6X6X6X6X6X6X6X6X6X6X6X6X6X6X6X6X6X6XT.T.T.T.T.T.T.T.T.T.6X6X6X6X6X6X6X6X6X6X6X6X6X6X6X6X6X6X6X",
"6X6X6X6X6X6X6X6X6X6X6X6X6X6X6X6XT.T.T.W.W.W.!.^.^.^.W.W.T.T.T.T.6X6X6X6X6X6X6X6X6X6X6X6X6X6X6X6X",
"6X6X6X6X6X6X6X6X6X6X6X6X6X6XT.T.!.!.Y.B.M.v.c.t.t.c.v.M.V.T.^.W.T.T.6X6X6X6X6X6X6X6X6X6X6X6X6X6X",
"6X6X6X6X6X6X6X6X6X6X6X6XT.T.!.T.N.t.I h 6 *         * 6 h I t.N.Y.!.T.T.6X6X6X6X6X6X6X6X6X6X6X6X",
"6X6X6X6X6X6X6X6X6X6XT.T.W.Z.b.Q r                             r Q b.U.W.T.T.6X6X6X6X6X6X6X6X6X6X",
"6X6X6X6X6X6X6X6X6XT.W.W.M.Q 6                                     6 Q M.W.W.T.6X6X6X6X6X6X6X6X6X",
"6X6X6X6X6X6X6X6XT.W.Z.y.a                                             d t.Z.W.T.6X6X6X6X6X6X6X6X",
"6X6X6X6X6X6X6XT.W.C.) ;                                                 * ) C.W.T.6X6X6X6X6X6X6X",
"6X6X6X6X6X6XW.W.B.I                                                         I V.W.T.6X6X6X6X6X6X",
"6X6X6X6X6XY.T.C.I                                       3 i m u               T V.W.T.6X6X6X6X6X",
"6X6X6X6XT.W.Z.)                       3 m N S O.w.A.S.K./.`.P.@.,               ) U.W.T.6X6X6X6X",
"6X6X6X6XT.W.y.-                     m K.XX&X1X5X5X5X5X5X5X|.f.1.V               - y.W.T.6X6X6X6X",
"6X6X6XT.W.M.a                     m /.5X5X5X5X5X5X5X5X5X|.f.;.6.' 8               a M.W.T.6X6X6X",
"6X6X6XT.U.Q                     N (.5X5X5X5X5X5X5X5X5X{.i.;.6.6.7.G                 Q U.T.6X6X6X",
"6X6XT.!.b.4                   A ).5X5X5X5X5X5X5X5X5X Xp.;.6.6.;.6.{ a               4 b.W.T.6X6X",
"6X6XT.Y.!                   S `.5X5X5X5X5X5X5X5X5XOXs.;.>.>.6.>.6.7.T *               ! T.T.6X6X",
"6XT.!.N.t                 ..'.5X5X5X5X5X5X5X5X5X#Xg.;.6.>.6.>.6.>.6.&.j               y N.W.T.6X",
"6XT.!.t.                X.].5X5X5X5X5X5X5X5X5X#Xh.;.>.6.6.>.6.>.6.>.6.~ ,               t.!.T.6X",
"6XT.Y.T               o.XX5X5X5X5X5X5X5X5X5X*Xk.;.6.&.>.>.6.>.6.>.6.>.6.v               T T.T.6X",
"T.!.V.h             +.&X5X5X5X5X5X5X5X5X5X*Xl.;.6.1.6.6.6.>.6.>.6.>.6.6.] 8             h B.W.T.",
"T.!.m.6           q.-X5X5X5X5X5X5X5X5X5X*Xx.1.>.>.6.>.6.>.6.>.6.6.>.6.>.6.G             6 M.W.T.",
"T.!.v.-       - e.>X5X5X5X5X5X5X5X5X5X;XG.;.>.6.6.>.6.>.6.>.6.>.>.6.>.6.6.#.d           * v.W.T.",
"W.!.c.        D I.|. X@X;X1X2X3X5X5X,XG.;.>.6.>.>.6.>.6.>.6.>.6.6.>.6.>.6.6.W -           c.W.T.",
"T.!.t.        e ' 8.9.0.u.p.j.G.J.H.z.6.1.1.>.6.6.>.6.>.6.>.6.>.>.6.>.6.>.6.>.k           t.^.W.",
"T.W.t.          h { 1.&.1.;.;.;.;.;.;.6.>.6.>.6.>.6.>.6.>.6.>.6.>.6.>.6.>.6.7./ ,         t.!.T.",
"W.^.c.            V 1.1.1.6.>.6.&.6.>.>.6.>.6.>.6.>.6.>.6.>.6.>.6.>.6.>.6.>.>.[ r         c.^.T.",
"T.W.v.*           * T 6.>.>.6.>.1.6.>.6.>.6.>.6.>.6.>.6.>.6.>.6.>.6.>.6.>.6.&.z         * v.!.T.",
"T.W.M.6             6 ) 6.6.>.6.6.>.6.>.6.>.6.>.6.>.6.>.6.>.6.>.6.>.6.>.6.>.Z *         6 M.W.T.",
"T.T.V.h               d { >.>.6.>.6.>.6.>.6.>.6.>.6.>.6.>.6.>.6.6.>.6.6.6.T ,           h B.!.T.",
"6XT.T.T                 v >.6.>.6.>.6.>.6.>.6.>.6.>.6.>.6.>.6.>.>.6.>.6.) 8             I T.T.6X",
"6XT.!.y.                - L >.6.>.6.>.6.>.6.>.6.>.6.>.6.>.6.>.6.6.>.6.[ d               t.!.T.6X",
"6XT.W.N.r                 4 ~ 6.6.>.6.>.6.>.6.>.6.>.6.>.6.>.6.>.1.6.&.l               r N.W.T.6X",
"6X6XT.T.!                   a [ >.6.>.6.>.6.6.>.6.>.6.>.>.6.>.6.>.6.Z                 ! Y.T.6X6X",
"6X6XT.W.b.4                   z &.6.6.>.6.>.>.6.>.6.>.6.6.>.6.>.6.I ;               6 b.!.T.6X6X",
"6X6X6XT.U.Q                     L 1.1.6.>.>.6.>.6.>.6.>.6.6.1.6./ 4                 Q U.T.6X6X6X",
"6X6X6XT.W.M.a                   , Q 6.6.6.6.>.6.>.6.>.6.&.6.6.[ a                 d M.!.T.6X6X6X",
"6X6X6X6XT.W.y.-                   1 j G / { 6.6.6.6.6.1.6.>.&.k                 * t.W.T.6X6X6X6X",
"6X6X6X6XY.W.Z.)                         ; q l P ) #.6.7.6.>.C                   ) Z.W.T.6X6X6X6X",
"6X6X6X6X6XW.T.C.T                               ; y z I ) P -                 I C.W.T.6X6X6X6X6X",
"6X6X6X6X6X6XT.W.V.T                                     1 ;                 I B.W.T.6X6X6X6X6X6X",
"6X6X6X6X6X6X6XT.!.C.) *                                                 , / C.W.T.6X6X6X6X6X6X6X",
"6X6X6X6X6X6X6X6XT.W.Z.t.d                                             a t.Z.W.T.6X6X6X6X6X6X6X6X",
"6X6X6X6X6X6X6X6X6XT.W.W.M.Q 6                                     4 Q M.W.W.T.6X6X6X6X6X6X6X6X6X",
"6X6X6X6X6X6X6X6X6X6XT.T.W.U.b.Q r                             r Q b.Z.W.W.Y.6X6X6X6X6X6X6X6X6X6X",
"6X6X6X6X6X6X6X6X6X6X6X6XT.T.!.T.N.t.I h 6 *         * 6 h I t.N.Y.!.T.T.6X6X6X6X6X6X6X6X6X6X6X6X",
"6X6X6X6X6X6X6X6X6X6X6X6X6X6XT.T.W.^.T.V.M.v.c.t.t.c.v.M.B.Y.!.!.T.T.6X6X6X6X6X6X6X6X6X6X6X6X6X6X",
"6X6X6X6X6X6X6X6X6X6X6X6X6X6X6X6XT.T.T.T.W.W.^.^.^.!.W.W.W.T.T.T.6X6X6X6X6X6X6X6X6X6X6X6X6X6X6X6X",
"6X6X6X6X6X6X6X6X6X6X6X6X6X6X6X6X6X6X6XT.T.T.T.T.T.T.T.T.T.6X6X6X6X6X6X6X6X6X6X6X6X6X6X6X6X6X6X6X"
};
