/* XPM */
static char *bitcoin24[] = {
/* columns rows colors chars-per-pixel */
"24 24 119 2 ",
"   c black",
".  c #000001",
"X  c #000101",
"o  c #010102",
"O  c #010202",
"+  c #010203",
"@  c #000303",
"#  c #020203",
"$  c #020304",
"%  c #030305",
"&  c #000404",
"*  c #030406",
"=  c #030407",
"-  c #000606",
";  c #06070C",
":  c #06080C",
">  c #07080D",
",  c #07090E",
"<  c #000C0C",
"1  c #080A0F",
"2  c #080A10",
"3  c #090B11",
"4  c #0B0C14",
"5  c #0C0E16",
"6  c #021517",
"7  c #051519",
"8  c #0E111B",
"9  c #0F121D",
"0  c #001818",
"q  c #10131F",
"w  c #121522",
"e  c #121623",
"r  c #161A2A",
"t  c #171B2B",
"y  c #171C2D",
"u  c #1A1B2E",
"i  c #1A1F32",
"p  c #1C2135",
"a  c #1C2236",
"s  c #1D2338",
"d  c #003F3F",
"f  c #21273F",
"g  c #232A44",
"h  c #242B45",
"j  c #252C46",
"k  c #252C47",
"l  c #252D48",
"z  c #262D48",
"x  c #28304D",
"c  c #2A3250",
"v  c #2B3453",
"b  c #2C3555",
"n  c #2E3757",
"m  c #2E3859",
"M  c #2F385A",
"N  c #303A5D",
"B  c #313B5E",
"V  c #323C60",
"C  c #333D62",
"Z  c #005151",
"A  c #005959",
"S  c #354066",
"D  c #364167",
"F  c #37426A",
"G  c #37436A",
"H  c #394069",
"J  c #38426A",
"K  c #38436B",
"L  c #38436C",
"P  c #39436C",
"I  c #3A426C",
"U  c #39446D",
"Y  c #39446E",
"T  c #39456E",
"R  c #3A456E",
"E  c #3A456F",
"W  c #38466F",
"Q  c #006161",
"!  c #006A6A",
"~  c #007474",
"^  c #226179",
"/  c #404D7B",
"(  c #51629C",
")  c #52629C",
"_  c #5769A8",
"`  c #677CC5",
"'  c #697FC9",
"]  c #008585",
"[  c #1D8196",
"{  c #009C9C",
"}  c #25849F",
"|  c #26849F",
" . c #2488A2",
".. c #238CA5",
"X. c #238EA7",
"o. c #228FA8",
"O. c #1EA0B5",
"+. c #1AAABD",
"@. c #00B1B1",
"#. c #16B7C7",
"$. c #6B81CD",
"%. c #6B81CE",
"&. c #6D83D0",
"*. c #6E85D3",
"=. c #6F85D4",
"-. c #00C7C6",
";. c #06C4C9",
":. c #12C3D0",
">. c #00E3E3",
",. c #00E8E8",
"<. c #00EBEB",
"1. c #00EFEF",
"2. c #00F3F3",
"3. c #05F0F3",
"4. c #04F1F4",
"5. c #04F3F6",
"6. c #03F4F7",
"7. c cyan",
"8. c None",
/* pixels */
"8.8.8.8.8.8.8.8.8.=.&.%.%.*.*.8.8.8.8.8.8.8.8.8.",
"8.8.8.8.8.8.*.$._ / m z k m / _ $.=.8.8.8.8.8.8.",
"8.8.8.8.8.%.( z 2             2 k ( %.8.8.8.8.8.",
"8.8.8.8.` G 2                     1 G ` 8.8.8.8.",
"8.8.8.` n               & < 0 6     % m ` 8.8.8.",
"8.8.%.G %         d ] { @.-.;.^ 5       K %.8.8.",
"8.*.( 2         Z >.7.7.7.3.| E h       1 ( =.8.",
"8.' k         A ,.7.7.7.3.} K E S q       k $.8.",
"8._ 3     @ Q ,.7.7.7.3. .G L E R c =     2 _ 8.",
"=./     & ! 3.7.7.7.4.X.E E E K K K t       / =.",
"*.m   & ~ 2.7.7.7.6.o.K K E K E E E n 1     N %.",
"%.k   7 [ O.+.#.:.X.E E E K E K L E L a     k %.",
"%.z     u K I R W E K E K E K E E E E N >   k %.",
"%.m     & g L L K K E K E K E K G K K a     m &.",
"=./       > v E E K K E K E K E E E h =     / =.",
"8._ 3       8 V E E E K E K E K E v :     3 _ 8.",
"8.$.k         y K L L E L E L E B 5       z $.8.",
"8.*.( 2         f G E E E K E S w       3 ( *.8.",
"8.8.%.G %       = q a x B K K i         G %.8.8.",
"8.8.8.` n &             1 w r %     % n ` 8.8.8.",
"8.8.8.8.` G 1                     1 G ` 8.8.8.8.",
"8.8.8.8.8.%.) k 2             2 k ( %.8.8.8.8.8.",
"8.8.8.8.8.8.=.$._ / m k z m / _ ' *.8.8.8.8.8.8.",
"8.8.8.8.8.8.8.8.8.*.*.%.%.&.=.8.8.8.8.8.8.8.8.8."
};
