/* XPM */
static char *bitcoin__[] = {
/* columns rows colors chars-per-pixel */
"56 56 232 2 ",
"   c black",
".  c #000001",
"X  c #000101",
"o  c #010101",
"O  c #010102",
"+  c #000202",
"@  c #000303",
"#  c #020203",
"$  c #020204",
"%  c #030305",
"&  c #000505",
"*  c #030406",
"=  c #030407",
"-  c #040407",
";  c #040508",
":  c #050609",
">  c #05060A",
",  c #06070B",
"<  c #06070C",
"1  c #07090E",
"2  c #000C0C",
"3  c #000E0E",
"4  c #08090E",
"5  c #08090F",
"6  c #080A0F",
"7  c #080A10",
"8  c #090A11",
"9  c #0A0B12",
"0  c #0A0C13",
"q  c #0B0D15",
"w  c #0B0E16",
"e  c #001717",
"r  c #0D1019",
"t  c #0F121C",
"y  c #0F121D",
"u  c #001919",
"i  c #001D1D",
"p  c #10131F",
"a  c #10141F",
"s  c #061D22",
"d  c #111420",
"f  c #121522",
"g  c #121623",
"h  c #141725",
"j  c #151726",
"k  c #141826",
"l  c #151928",
"z  c #151929",
"x  c #171B2C",
"c  c #181C2D",
"v  c #181D2D",
"b  c #191E30",
"n  c #191E31",
"m  c #002222",
"M  c #002424",
"N  c #002828",
"B  c #002E2E",
"V  c #1A2032",
"C  c #1A2033",
"Z  c #1B2033",
"A  c #1B2034",
"S  c #1B2134",
"D  c #1C2236",
"F  c #1E243A",
"G  c #003131",
"H  c #003434",
"J  c #003535",
"K  c #003B3B",
"L  c #21253C",
"P  c #20263D",
"I  c #21273F",
"U  c #0A3F46",
"Y  c #222840",
"T  c #222941",
"R  c #232A44",
"E  c #242B45",
"W  c #242C45",
"Q  c #252C46",
"!  c #262D49",
"~  c #262E49",
"^  c #282F4C",
"/  c #28304D",
"(  c #29314E",
")  c #29314F",
"_  c #2A3250",
"`  c #2B3352",
"'  c #2C3555",
"]  c #2D3555",
"[  c #2C3655",
"{  c #2D3656",
"}  c #2D3657",
"|  c #2E3657",
" . c #2E3758",
".. c #2F385A",
"X. c #30395B",
"o. c #30395C",
"O. c #303A5C",
"+. c #303A5D",
"@. c #313A5D",
"#. c #313B5D",
"$. c #313B5E",
"%. c #323C5F",
"&. c #323C60",
"*. c #343E64",
"=. c #353F65",
"-. c #353F66",
";. c #004242",
":. c #004444",
">. c #004848",
",. c #004949",
"<. c #005151",
"1. c #005959",
"2. c #005E5E",
"3. c #354066",
"4. c #364067",
"5. c #364168",
"6. c #374269",
"7. c #37426A",
"8. c #3A416A",
"9. c #3A416B",
"0. c #38426B",
"q. c #38436B",
"w. c #3A426B",
"e. c #39426C",
"r. c #38436C",
"t. c #39436C",
"y. c #39436D",
"u. c #3A426C",
"i. c #3A436D",
"p. c #38446C",
"a. c #39446C",
"s. c #39446D",
"d. c #39446E",
"f. c #39456E",
"g. c #3A456E",
"h. c #3A456F",
"j. c #364D74",
"k. c #384870",
"l. c #355278",
"z. c #31597C",
"x. c #33597D",
"c. c #325A7E",
"v. c #006161",
"b. c #006D6C",
"n. c #006F6F",
"m. c #315D80",
"M. c #315E82",
"N. c #2F6486",
"B. c #2F6687",
"V. c #2D6A8B",
"C. c #2D6B8C",
"Z. c #306184",
"A. c #2C708F",
"S. c #2B7190",
"D. c #2B7392",
"F. c #2A7493",
"G. c #2A7694",
"H. c #297895",
"J. c #277F9B",
"K. c #287D99",
"L. c #445182",
"P. c #445282",
"I. c #445283",
"U. c #52639D",
"Y. c #5769A8",
"T. c #5869A8",
"R. c #586AA9",
"E. c #5C6EB0",
"W. c #6175BA",
"Q. c #6377BE",
"!. c #6579C1",
"~. c #667BC4",
"^. c #677CC5",
"/. c #008686",
"(. c #009D9D",
"). c #1995A8",
"_. c #238CA5",
"`. c #00A6A6",
"'. c #00B0B0",
"]. c #00B2B2",
"[. c #00B8B8",
"{. c #00BFBF",
"}. c #18B4C5",
"|. c #14BECC",
" X c #6A80CB",
".X c #6A80CC",
"XX c #6B80CC",
"oX c #6C82CF",
"OX c #6C82D0",
"+X c #6D83D0",
"@X c #6D83D1",
"#X c #6D84D1",
"$X c #6D84D2",
"%X c #6E84D2",
"&X c #00C6C6",
"*X c #00CDCD",
"=X c #0FCDD8",
"-X c #0FCED9",
";X c #11C8D4",
":X c #10C9D5",
">X c #00D3D3",
",X c #00D7D7",
"<X c #0DD3DD",
"1X c #0DD4DE",
"2X c #00D9D9",
"3X c #00DEDE",
"4X c #0BDAE2",
"5X c #0CD9E1",
"6X c #0ADEE5",
"7X c #00E3E3",
"8X c #00E5E5",
"9X c #0AE0E6",
"0X c #07E6EC",
"qX c #07E7EC",
"wX c #09E3E9",
"eX c #08E5EB",
"rX c #00E8E8",
"tX c #06EAEE",
"yX c #06EBEF",
"uX c #00ECEC",
"iX c #00EFEF",
"pX c #05EEF2",
"aX c #00F1F1",
"sX c #03F4F6",
"dX c #00F7F7",
"fX c #02F9FA",
"gX c #00FAFA",
"hX c #01FCFD",
"jX c #00FDFD",
"kX c #00FEFE",
"lX c cyan",
"zX c None",
/* pixels */
"zXzXzXzXzXzXzXzXzXzXzXzXzXzXzXzXzXzXzXzXzXzXzXoXoXoXXX@XXXXXOXOXOXzXzXzXzXzXzXzXzXzXzXzXzXzXzXzXzXzXzXzXzXzXzXzX",
"zXzXzXzXzXzXzXzXzXzXzXzXzXzXzXzXzXzXzXoX@XXXoXoXXX@X@XoX%X%XOXoXOXXXoXoXoXzXzXzXzXzXzXzXzXzXzXzXzXzXzXzXzXzXzXzX",
"zXzXzXzXzXzXzXzXzXzXzXzXzXzXzXzXzXoXoXoX@X@X%X%XXX~.Q.Q.W.Q.^. X%X%X%X@XoXXXOXzXzXzXzXzXzXzXzXzXzXzXzXzXzXzXzXzX",
"zXzXzXzXzXzXzXzXzXzXzXzXzXzXzXoXoXoX@X@X^.Y.I.O.T v d y y d v T ..L.Y.^.%X%XoXoXoXzXzXzXzXzXzXzXzXzXzXzXzXzXzXzX",
"zXzXzXzXzXzXzXzXzXzXzXzXzXoXoX@X%XXXR.p.V 6                         9 V w.R.oX%XoXoXXXzXzXzXzXzXzXzXzXzXzXzXzXzX",
"zXzXzXzXzXzXzXzXzXzXzXzXoXoX@XXXU./ 9                                     9 ^ U.XX%X%XXXzXzXzXzXzXzXzXzXzXzXzXzX",
"zXzXzXzXzXzXzXzXzXzX@XXX@X@XE.[ 1                                             6 [ E.%XOX%XXXzXzXzXzXzXzXzXzXzXzX",
"zXzXzXzXzXzXzXzXzX%XXX@X XL.d                                                     a L. X%XXX%XzXzXzXzXzXzXzXzXzX",
"zXzXzXzXzXzXzXzXoXXX%X!.O.;                                                         ; O.!.@XoXoXzXzXzXzXzXzXzXzX",
"zXzXzXzXzXzXzX@XoX%XW.W                                                                 E W.@XoXoXzXzXzXzXzXzXzX",
"zXzXzXzXzXzX@X@X@XW.Y                                                                     I W.@XoXoXzXzXzXzXzXzX",
"zXzXzXzXzXzXXX%X!.W                                       & 2 u M H ,.2.U $                 W !.%XoXzXzXzXzXzXzX",
"zXzXzXzXzXoX@X^.O.                          3 G ;.1.n./.(.].&X,X8XaXfX;Xx.j                 # O. XXXOXzXzXzXzXzX",
"zXzXzXzXoXoX@XI.;                         u `.iXdXlXlXlXlXlXlXlXlXlX-Xx.u.[ 6                 ; I.%XOXXXzXzXzXzX",
"zXzXzXzXoX@XE.d                         i '.lXlXlXlXlXlXlXlXlXlXlX-XM.u.t.p.n                   d E.%X%XzXzXzXzX",
"zXzXzXoXoXXX[                         m [.lXlXlXlXlXlXlXlXlXlXlX<XM.u.p.g.p.%.q                   [ XXXX%XzXzXzX",
"zXzXzXOX%XU.6                       N {.lXlXlXlXlXlXlXlXlXlXlX1XZ.u.p.p.h.t.h.T                   6 U.%XoXzXzXzX",
"zXzX@XXXXX(                       B &XlXlXlXlXlXlXlXlXlXlXlX5XN.u.p.g.t.h.p.t.5.p                   ( XXoXoXzXzX",
"zXzX@X%XY.0                     H *XlXlXlXlXlXlXlXlXlXlXlX5XN.t.h.t.p.t.t.t.p.h.( $                 0 R.@XoXzXzX",
"zXoXXX%Xp.                    K >XlXlXlXlXlXlXlXlXlXlXlX6XV.t.p.p.t.h.h.p.h.h.t.t.l                   p.@XoXoXzX",
"zXoX@X^.S                   ;.2XlXlXlXlXlXlXlXlXlXlXlX6XC.u.p.p.h.t.p.p.p.t.t.h.p. .;                 V ^.oXoXzX",
"zXoX@XY.0                 ,.3XlXlXlXlXlXlXlXlXlXlXlXwXA.w.p.p.g.p.t.h.t.h.h.p.p.p.t.D                 9 Y.%XoXzX",
"zXoX%XI.                <.7XlXlXlXlXlXlXlXlXlXlXlXeXD.u.g.p.g.t.p.h.t.h.t.p.h.t.g.h.&.w                 I.%XoXzX",
"oXoX%XO.              1.rXlXlXlXlXlXlXlXlXlXlXlXeXG.u.p.t.t.g.p.t.h.p.p.t.h.p.t.t.p.h.T                 O.%XoXoX",
"oXoXXXT           & v.iXlXlXlXlXlXlXlXlXlXlXlXtXH.u.p.g.t.t.p.h.h.t.p.p.h.t.p.h.p.p.t.w.p               T XXXXOX",
"XX@X^.v           n.aXlXlXlXlXlXlXlXlXlXlXlXtXK.u.p.t.g.p.h.p.t.p.t.h.t.h.p.t.h.h.p.p.h.^ -             c ^.OXOX",
"@X%XQ.d         s ).}.|.;X1X6XeXpXsXfXlXlXpXJ.u.p.g.p.p.h.p.h.t.p.h.t.h.t.t.p.p.t.p.p.p.w.l             d Q.%XXX",
"XX%XW.y         $ I p.p.p.j.l.x.M.V.G.K._.D.g.p.g.p.g.t.t.t.h.p.t.h.p.p.p.h.h.t.t.h.p.p.p...4           y W.%XOX",
"XX@XW.y           ; ` h.t.h.t.t.u.u.u.u.u.u.t.t.t.h.h.p.p.p.h.t.p.h.t.t.t.h.h.p.p.p.h.t.p.h.F           y W.%XoX",
"@X%XQ.d             q O.h.p.t.h.p.p.p.u.t.h.p.g.p.p.t.t.h.t.h.p.t.h.p.h.p.p.t.t.h.t.h.p.p.p.[ $         d Q.%XoX",
"XX%X~.v               l w.t.t.p.g.p.g.t.t.p.h.p.h.t.p.h.t.h.t.p.t.p.h.p.h.t.p.h.t.h.t.p.p.4.k           v ^.XXOX",
"XXOXXXT               O F t.h.p.t.t.g.p.h.p.t.t.h.p.t.h.p.p.t.h.h.p.t.t.h.p.t.h.p.p.t.h.p.D             T XXoXOX",
"OXXX%X$.                ; ( p.p.t.p.h.h.t.p.h.t.p.p.h.t.h.t.p.p.h.h.t.p.t.p.h.h.t.p.t.t.E $             $.%XoXoX",
"zX%X%XL.                  0 O.p.h.p.t.p.t.h.p.t.h.t.h.p.p.t.h.t.t.p.t.h.h.p.t.p.t.h.g.` <               L.%XoXzX",
"zXOX%XY.9                   h 5.h.t.p.t.p.p.h.h.t.h.t.p.p.h.t.h.p.t.p.h.h.t.p.t.p.h.O.w               0 Y.%XXXzX",
"zXOXXX^.V                     D p.t.h.h.h.t.t.p.p.p.t.h.t.h.p.p.h.h.p.t.p.t.h.h.h.-.h                 V ^.oX%XzX",
"zX%X%X%Xq.                    ; ~ t.t.p.t.h.h.p.h.t.p.h.t.p.h.t.t.p.h.t.p.h.p.p.t.b                   p.%XoXoXzX",
"zXzXXX%XY.0                     9 O.h.p.p.p.t.t.h.p.t.h.t.h.p.t.t.h.p.t.p.t.t.t.T $                 0 R.%XoXzXzX",
"zXzXoXoXXX(                       d -.h.h.t.p.g.t.t.p.p.p.p.h.h.p.p.h.h.h.p.h.( <                   ( XXXXOXzXzX",
"zXzXzXoX%XU.6                       n t.h.p.t.g.p.h.h.t.h.t.t.p.h.t.t.p.t.h.O.q                   1 U.%XoXzXzXzX",
"zXzXzXoXoXoX[                       - E p.p.p.p.t.h.h.p.h.p.p.t.t.h.h.p.p.-.d                     ..XXoXoXzXzXzX",
"zXzXzXzXoX@XE.d                       9 [ p.g.g.p.p.t.p.t.t.h.h.p.p.p.p.w.c                     d R.%XoXzXzXzXzX",
"zXzXzXzXoXoX@XI.;                       9 l T [ -.h.h.h.p.h.p.p.h.t.p.h.F O                   ; I.%XXX%XzXzXzXzX",
"zXzXzXzXzXoXoX XO.                            - w c E  .w.t.h.p.h.p.p.( ;                     O. XOXOXzXzXzXzXzX",
"zXzXzXzXzXzXoX@X!.W                                   ; r b ~ O.w.h. .9                     W !.%XXXzXzXzXzXzXzX",
"zXzXzXzXzXzXoXoX@XW.I                                         1 p n r                     T W.@XoXoXzXzXzXzXzXzX",
"zXzXzXzXzXzXzXoXoX@XQ.E                                                                 E W.@XoXoXzXzXzXzXzXzXzX",
"zXzXzXzXzXzXzXzXoXoX%X!.O.;                                                         ; O.!.@XoXoXzXzXzXzXzXzXzXzX",
"zXzXzXzXzXzXzXzXzXoXoX@X XI.p                                                     d I.XX%XXX%XzXzXzXzXzXzXzXzXzX",
"zXzXzXzXzXzXzXzXzXzXoXoXoX@XE.[ 1                                             1  .R.%XOXXXOXzXzXzXzXzXzXzXzXzXzX",
"zXzXzXzXzXzXzXzXzXzXzXzXoXoX@XXXU./ 9                                     0 ( U.XX%XoXoXzXzXzXzXzXzXzXzXzXzXzXzX",
"zXzXzXzXzXzXzXzXzXzXzXzXzXoXoXoX%XXXY.p.V 9                         9 V p.Y.XX@XoXoXoXzXzXzXzXzXzXzXzXzXzXzXzXzX",
"zXzXzXzXzXzXzXzXzXzXzXzXzXzXzXoXoXoX%X%X^.Y.L...T v d y y d v T ..L.Y.~.@X@XoXoXoXzXzXzXzXzXzXzXzXzXzXzXzXzXzXzX",
"zXzXzXzXzXzXzXzXzXzXzXzXzXzXzXzXzXOXXXoX@X%X%X%X X^.Q.W.W.Q.^.XX%X%X%X@XoXoXoXzXzXzXzXzXzXzXzXzXzXzXzXzXzXzXzXzX",
"zXzXzXzXzXzXzXzXzXzXzXzXzXzXzXzXzXzXzXoXoXoXXXOXoXOXoX%X%XOX%XXXOXXXoXoXoXzXzXzXzXzXzXzXzXzXzXzXzXzXzXzXzXzXzXzX",
"zXzXzXzXzXzXzXzXzXzXzXzXzXzXzXzXzXzXzXzXzXzXzXOXoXoXoXOXOXXXoXoX%XzXzXzXzXzXzXzXzXzXzXzXzXzXzXzXzXzXzXzXzXzXzXzX"
};
