/* XPM */
static char *bitcoin40[] = {
/* columns rows colors chars-per-pixel */
"40 40 192 2 ",
"   c black",
".  c #000001",
"X  c #000101",
"o  c #010101",
"O  c #010102",
"+  c #000202",
"@  c #010203",
"#  c #000303",
"$  c #020203",
"%  c #000403",
"&  c #020204",
"*  c #020304",
"=  c #020305",
"-  c #030305",
";  c #000504",
":  c #030406",
">  c #000606",
",  c #040508",
"<  c #050509",
"1  c #050609",
"2  c #05060A",
"3  c #06070B",
"4  c #06070C",
"5  c #06080C",
"6  c #07080D",
"7  c #08090F",
"8  c #080A10",
"9  c #090B12",
"0  c #0A0C13",
"q  c #0B0D15",
"w  c #0B0E16",
"e  c #0C0E16",
"r  c #0C0E17",
"t  c #0D0F18",
"y  c #001010",
"u  c #0D1019",
"i  c #001C1C",
"p  c #10131F",
"a  c #10141F",
"s  c #101420",
"d  c #121522",
"f  c #121623",
"g  c #131624",
"h  c #141826",
"j  c #161A29",
"k  c #171B2C",
"l  c #191E30",
"z  c #1A1F31",
"x  c #002A2A",
"c  c #002E2E",
"v  c #122431",
"b  c #1C2135",
"n  c #132936",
"m  c #1D2338",
"M  c #1E2439",
"N  c #1F253B",
"B  c #1F253C",
"V  c #003434",
"C  c #003B3B",
"Z  c #003C3C",
"A  c #20263D",
"S  c #21273F",
"D  c #22273F",
"F  c #222841",
"G  c #242B44",
"H  c #262D48",
"J  c #262D49",
"K  c #272E4A",
"L  c #272F4A",
"P  c #272F4B",
"I  c #27304C",
"U  c #29314F",
"Y  c #2A324F",
"T  c #2B3352",
"R  c #2C3454",
"E  c #2C3554",
"W  c #2C3555",
"Q  c #2D3655",
"!  c #2D3556",
"~  c #30395B",
"^  c #31395C",
"/  c #313A5D",
"(  c #313A5E",
")  c #313B5E",
"_  c #323C60",
"`  c #343E63",
"'  c #343E64",
"]  c #343F64",
"[  c #353F64",
"{  c #353F65",
"}  c #004242",
"|  c #004949",
" . c #005050",
".. c #005151",
"X. c #06555A",
"o. c #005959",
"O. c #354066",
"+. c #364167",
"@. c #364168",
"#. c #374269",
"$. c #37426A",
"%. c #37436A",
"&. c #3A416A",
"*. c #3A416B",
"=. c #38436B",
"-. c #3A426B",
";. c #39426C",
":. c #38436C",
">. c #39436C",
",. c #39436D",
"<. c #3A426C",
"1. c #39446C",
"2. c #39446D",
"3. c #39446E",
"4. c #39456E",
"5. c #3A456E",
"6. c #3A456F",
"7. c #3D4A75",
"8. c #315A7D",
"9. c #006161",
"0. c #006565",
"q. c #006B6B",
"w. c #007C7C",
"e. c #2D6C8C",
"r. c #2D6D8D",
"t. c #306385",
"y. c #2C708F",
"u. c #2E6F90",
"i. c #2B7392",
"p. c #2A7694",
"a. c #2A7795",
"s. c #297997",
"d. c #287D9A",
"f. c #4C5C92",
"g. c #52629C",
"h. c #5768A6",
"j. c #6074B8",
"k. c #6074B9",
"l. c #6479C0",
"z. c #677CC6",
"x. c #687EC8",
"c. c #697EC9",
"v. c #6A7FCA",
"b. c #0B878F",
"n. c #009595",
"m. c #27809C",
"M. c #26819D",
"N. c #26829D",
"B. c #26839E",
"V. c #1F9BB1",
"C. c #2587A1",
"Z. c #228EA7",
"A. c #00AAAA",
"S. c #1BA8BB",
"D. c #6C82CE",
"F. c #6C82CF",
"G. c #6C82D0",
"H. c #6C83D0",
"J. c #6D83D0",
"K. c #6D83D1",
"L. c #6D84D2",
"P. c #6E84D2",
"I. c #00CDCD",
"U. c #00CECE",
"Y. c #00D3D3",
"T. c #00D9D9",
"R. c #00DDDD",
"E. c #00DEDE",
"W. c #07DDE2",
"Q. c #00E3E3",
"!. c #09E0E7",
"~. c #0AE1E9",
"^. c #09E3E9",
"/. c #08E6EB",
"(. c #00E8E8",
"). c #00EAEA",
"_. c #07E8ED",
"`. c #07EAEE",
"'. c #00ECEC",
"]. c #00F0EF",
"[. c #06EBF0",
"{. c #05EEF2",
"}. c #05F0F3",
"|. c #04F1F4",
" X c #05F1F5",
".X c #00F4F4",
"XX c #03F5F7",
"oX c #00FBFB",
"OX c #02FAFB",
"+X c #01FDFE",
"@X c cyan",
"#X c None",
/* pixels */
"#X#X#X#X#X#X#X#X#X#X#X#X#X#X#X#XJ.G.F.G.F.F.F.G.#X#X#X#X#X#X#X#X#X#X#X#X#X#X#X#X",
"#X#X#X#X#X#X#X#X#X#X#X#X#XF.P.P.J.F.v.z.z.v.F.J.P.J.J.#X#X#X#X#X#X#X#X#X#X#X#X#X",
"#X#X#X#X#X#X#X#X#X#X#XF.P.F.j.f.%.P m l l m P %.f.j.F.J.J.#X#X#X#X#X#X#X#X#X#X#X",
"#X#X#X#X#X#X#X#X#XF.J.v.g.W u ,                 - s Q g.v.J.F.#X#X#X#X#X#X#X#X#X",
"#X#X#X#X#X#X#X#XF.F.h.P 5                             5 P h.J.J.#X#X#X#X#X#X#X#X",
"#X#X#X#X#X#XF.J.v.7.w                                     e 7.x.J.F.#X#X#X#X#X#X",
"#X#X#X#X#XF.J.l.Q -                                         - W l.J.F.#X#X#X#X#X",
"#X#X#X#X#XJ.l.P                                   ;             P l.J.#X#X#X#X#X",
"#X#X#X#XJ.x.W                   ; y i x Z ..0.w.n.b.v             Q x.G.#X#X#X#X",
"#X#X#XF.J.7.-                 c A.I.E.)..XOX@X@XW.i.^ 7           - 7.J.J.#X#X#X",
"#X#X#XJ.h.e                 V I.@X@X@X@X@X@X@XW.u.<.5.A             t h.J.#X#X#X",
"#X#XJ.v.P                 C Y.@X@X@X@X@X@X@X/.r.<.5.,.{ t             P v.G.#X#X",
"#X#XP.g.5               } T.@X@X@X@X@X@X@X/.i.&.,.5.,.5.P -           5 g.J.#X#X",
"#XF.F.Q               | E.@X@X@X@X@X@X@X_.p.=.,.5.=.5.5.%.s             Q F.J.#X",
"#XJ.k.s             ..Q.@X@X@X@X@X@X@X`.s.,.,.5.=.5.5.=.5.R ,           s j.J.#X",
"#XP.f.-           o.).@X@X@X@X@X@X@X[.d.=.:.5.%.5.,.,.5.,.5.l           - f.P.#X",
"F.P.5.          9.).@X@X@X@X@X@X@X{.B.=.5.:.5.:.5.:.5.:.5.5.~ 8           5.J.F.",
"F.F.I       ; q.}.@X@X@X@X@X@X@X}.B.,.<.:.5.:.5.:.5.:.5.:.5.5.B           P F.F.",
"F.x.b       X.W.}..XOX@X@X@X@X{.C.=.,.,.5.:.5.:.5.:.5.:.:.5.5.] e         m v.F.",
"F.z.b       n 8.t.r.a.M.Z.V.S.B.,.5.,.5.:.5.:.5.:.5.:.5.5.:.5.6.P -       l z.F.",
"F.z.l       $ D ,.=.&.&.=.=.=.&.5.,.5.=.5.,.5.:.=.3.3.5.:.5.:.5.=.g       l z.G.",
"F.v.m         3 R 5.,.,.:.5.,.,.=.5.,.5.%.5.:.5.5.5.=.=.5.:.5.:.O.g       b v.F.",
"F.F.I           u _ 5.5.5.:.5.:.5.=.5.=.5.:.5.:.3.=.5.3.3.3.:.:.b         I F.F.",
"F.P.=.            h =.,.:.5.:.5.,.5.,.5.,.5.:.5.3.5.=.3.3.3.5.G -         5.P.F.",
"#XP.f.,             A 5.5.5.5.:.:.5.:.5.:.5.:.5.=.5.=.5.3.5.T 5         - f.P.#X",
"#XJ.k.u             , T 5.,.:.5.5.:.5.:.5.:.5.:.=.3.3.3.5.~ w           a k.J.#X",
"#XF.F.Q               w / 5.5.:.:.5.:.5.:.5.:.5.5.5.3.5.O.g             Q F.F.#X",
"#X#XP.g.7               h O.5.5.5.:.5.:.5.:.5.:.3.=.=.=.l             5 g.P.#X#X",
"#X#XG.v.I               - m ,.5.:.5.:.5.,.5.:.5.,.5.5.F ;             P v.F.#X#X",
"#X#X#XJ.h.e               ; P ,.6.6.5.:.5.,.5.:.5.,.T ,             t h.J.#X#X#X",
"#X#X#XJ.J.7.-               , g B T ] :.6.5.5.5.5.~ w             - 7.J.J.#X#X#X",
"#X#X#X#XG.x.Q                     - 9 g A Q { 5.O.u               W x.J.#X#X#X#X",
"#X#X#X#X#XJ.l.P                           ; e k g               P l.P.#X#X#X#X#X",
"#X#X#X#X#XF.J.l.Q :                                         - Q k.P.P.#X#X#X#X#X",
"#X#X#X#X#X#XF.J.x.7.e                                     e 7.x.P.F.#X#X#X#X#X#X",
"#X#X#X#X#X#X#X#XF.J.h.P 5                             7 P h.J.J.#X#X#X#X#X#X#X#X",
"#X#X#X#X#X#X#X#X#XJ.J.v.g.W u ,                 - p Q g.v.J.F.#X#X#X#X#X#X#X#X#X",
"#X#X#X#X#X#X#X#X#X#X#XF.P.F.k.f.%.P m l l m P %.f.k.F.P.F.#X#X#X#X#X#X#X#X#X#X#X",
"#X#X#X#X#X#X#X#X#X#X#X#X#XF.P.P.J.F.v.z.z.v.F.P.P.J.F.#X#X#X#X#X#X#X#X#X#X#X#X#X",
"#X#X#X#X#X#X#X#X#X#X#X#X#X#X#X#XF.F.F.G.F.F.F.F.#X#X#X#X#X#X#X#X#X#X#X#X#X#X#X#X"
};
